<svg xmlns="http://www.w3.org/2000/svg" viewBox="0 0 345 95"><defs><style>.cls-1{fill:#fff;}</style></defs><title>cognitant</title><g id="Layer_2" data-name="Layer 2"><g id="Layer_1-2" data-name="Layer 1"><path class="cls-1" d="M33.89,87.88a15.41,15.41,0,0,1-2.39,2.79,14.63,14.63,0,0,1-3.25,2.27A18,18,0,0,1,19.82,95,20,20,0,0,1,12,93.47a19.16,19.16,0,0,1-6.28-4.25A19.6,19.6,0,0,1,1.5,82.78a23,23,0,0,1,0-16.33A19.6,19.6,0,0,1,5.67,60,19.16,19.16,0,0,1,12,55.76a20,20,0,0,1,7.87-1.53,18.92,18.92,0,0,1,7.09,1.42A14.26,14.26,0,0,1,33,60.37l-3.38,2.57A9.21,9.21,0,0,0,28,61.08a11.94,11.94,0,0,0-2.34-1.65,14.74,14.74,0,0,0-2.82-1.15,10.72,10.72,0,0,0-3-.43,15,15,0,0,0-6.55,1.37,14.7,14.7,0,0,0-4.92,3.67,16.26,16.26,0,0,0-3.09,5.34A19.59,19.59,0,0,0,5.26,81a16.26,16.26,0,0,0,3.09,5.34A14.7,14.7,0,0,0,13.27,90a15,15,0,0,0,6.55,1.37,16.6,16.6,0,0,0,3-.27,12.09,12.09,0,0,0,2.9-.93,10.87,10.87,0,0,0,2.68-1.78,13.22,13.22,0,0,0,2.34-2.83Z"/><path class="cls-1" d="M81.36,74.61a21.68,21.68,0,0,1-1.5,8.17,19.58,19.58,0,0,1-4.16,6.44,19.31,19.31,0,0,1-6.29,4.25,21,21,0,0,1-15.73,0,19.31,19.31,0,0,1-6.29-4.25,19.58,19.58,0,0,1-4.16-6.44,23,23,0,0,1,0-16.33A19.58,19.58,0,0,1,47.39,60a19.31,19.31,0,0,1,6.29-4.25,21,21,0,0,1,15.73,0A19.31,19.31,0,0,1,75.7,60a19.58,19.58,0,0,1,4.16,6.44A21.62,21.62,0,0,1,81.36,74.61Zm-4.19,0a19,19,0,0,0-1.07-6.38A16.26,16.26,0,0,0,73,62.89a14.76,14.76,0,0,0-4.91-3.67,16.37,16.37,0,0,0-13.11,0,14.76,14.76,0,0,0-4.91,3.67A16.26,16.26,0,0,0,47,68.23,19.59,19.59,0,0,0,47,81a16.26,16.26,0,0,0,3.09,5.34A14.76,14.76,0,0,0,55,90,16.37,16.37,0,0,0,68.1,90,14.76,14.76,0,0,0,73,86.34,16.26,16.26,0,0,0,76.1,81,19,19,0,0,0,77.17,74.61Z"/><path class="cls-1" d="M121.1,62.34a14.27,14.27,0,0,0-4.61-3.29,16.57,16.57,0,0,0-12.79.17,14.76,14.76,0,0,0-4.91,3.67,16.26,16.26,0,0,0-3.09,5.34A19.59,19.59,0,0,0,95.7,81a16.26,16.26,0,0,0,3.09,5.34A14.76,14.76,0,0,0,103.7,90a15.1,15.1,0,0,0,6.56,1.37,21.17,21.17,0,0,0,5.66-.74,19.73,19.73,0,0,0,4.86-2v-13H111.7V72h13v19A27.53,27.53,0,0,1,117.59,94a29,29,0,0,1-7.33,1,20,20,0,0,1-7.87-1.53,19.31,19.31,0,0,1-6.29-4.25,19.58,19.58,0,0,1-4.16-6.44,23,23,0,0,1,0-16.33A19.58,19.58,0,0,1,96.1,60a19.31,19.31,0,0,1,6.29-4.25,20,20,0,0,1,7.87-1.53,21.57,21.57,0,0,1,7.86,1.29A16.39,16.39,0,0,1,124,59.43Z"/><path class="cls-1" d="M188.29,94h-3.87V55.22h3.87Z"/><path class="cls-1" d="M214.71,94h-3.86V58.83H198.12V55.22h29.32v3.61H214.71Z"/><path class="cls-1" d="M233.52,94.23H229l16.63-39h3.78l16.64,39h-4.54L257.28,84H237.73Zm5.67-13.89h16.57l-8.26-20.5Z"/><path class="cls-1" d="M301.87,88.1H302V55.22h3.87V94H301L278.35,60.8h-.11V94h-3.86V55.22h4.83Z"/><path class="cls-1" d="M332.27,94H328.4V58.83H315.68V55.22H345v3.61H332.27Z"/><path class="cls-1" d="M196.63,21.65a8.39,8.39,0,0,0-5.71.29,8.9,8.9,0,0,0,1.26-3.15,14,14,0,0,0-.26-4.51l-1.2.83a6.13,6.13,0,0,1-1.45,7.38A23.26,23.26,0,0,0,182,29.15c-.22.31-.41.62-.59.93a16.29,16.29,0,0,0-5.54,1.41c-10,4.55-9.81,14.88-9.83,20.53V88.1H166L143.3,55.22h-4.83V94h3.86V60.8h.11L165.11,94h4.83V55.22c0-5.41-.22-8.72,1.31-13.71.72-2.33,2.91-8.51,9.24-10a2.21,2.21,0,0,1,.25,0c-2.5,5.65.86,10.16,4.62,11.38,4.66,1.52,9.23-3.45,6.76-7.63a10.83,10.83,0,0,0-9.63-5.12,16,16,0,0,1,1.74-2.29,19.69,19.69,0,0,1,5.92-4.64c1.77-.86,5.3-1.3,7.43-.26M191,36.71c.51,2.77-.63,4.56-2.62,5.17-1.78.55-5,0-6.84-3.44a7.81,7.81,0,0,1,.28-7.2C187,30.69,190.57,34.33,191,36.71Z"/><path class="cls-1" d="M191.52,16.91a9.91,9.91,0,0,0,.69-9.16C190.67,4.23,183,0,183,0s.83,9.31,2.45,12,5.5,4.32,5.5,4.32Z"/><path class="cls-1" d="M195.66,22.08a9.55,9.55,0,0,1,7.67-4.8c3.78-.22,11,4.81,11,4.81s-6.59,4.26-11.54,3.24a19.67,19.67,0,0,1-6.28-3Z"/></g></g></svg>