<svg xmlns="http://www.w3.org/2000/svg" viewBox="0 0 28 27"><defs><style>.cls-1{fill:#0096d7;}</style></defs><title>li</title><g id="Layer_2" data-name="Layer 2"><g id="Layer_1-2" data-name="Layer 1"><path class="cls-1" d="M.36,27h6V8.78h-6Zm3-27A3.14,3.14,0,0,0,0,3.15,3.12,3.12,0,0,0,3.32,6.3h0A3.14,3.14,0,0,0,6.75,3.15,3.13,3.13,0,0,0,3.4,0ZM28,16.55V27H22V17.25c0-2.44-.87-4.12-3-4.12a3.28,3.28,0,0,0-3.08,2.22,4.15,4.15,0,0,0-.2,1.48V27h-6s.08-16.51,0-18.22h6v2.58l0,.06h0v-.06a6,6,0,0,1,5.41-3C25,8.35,28,11,28,16.55Z"/></g></g></svg>