<svg xmlns="http://www.w3.org/2000/svg" viewBox="0 0 31 27"><defs><style>.cls-1{fill:#0096d7}</style></defs><title>tw</title><g id="Layer_2" data-name="Layer 2"><g id="Layer_1-2" data-name="Layer 1"><g id="_Group_" data-name="&lt;Group&gt;"><g id="_Group_2" data-name="&lt;Group&gt;"><path id="_Path_" data-name="&lt;Path&gt;" class="cls-1" d="M9.75,27c11.7,0,18.1-10.39,18.1-19.39,0-.3,0-.59,0-.88A13.73,13.73,0,0,0,31,3.2a12.3,12.3,0,0,1-3.65,1.07A6.75,6.75,0,0,0,30.14.5a12.08,12.08,0,0,1-4,1.65A6.19,6.19,0,0,0,21.46,0,6.6,6.6,0,0,0,15.1,6.82a7.22,7.22,0,0,0,.17,1.55A17.7,17.7,0,0,1,2.16,1.25,7.14,7.14,0,0,0,1.3,4.67a7,7,0,0,0,2.83,5.68,5.92,5.92,0,0,1-2.88-.86.28.28,0,0,0,0,.09,6.72,6.72,0,0,0,5.11,6.68,5.88,5.88,0,0,1-1.68.24,6,6,0,0,1-1.2-.12,6.45,6.45,0,0,0,5.95,4.74A12.28,12.28,0,0,1,1.52,24,12.66,12.66,0,0,1,0,23.94,17.16,17.16,0,0,0,9.75,27"/></g></g></g></g></svg>